<?xml version="1.0" encoding="UTF-8"?><svg id="Layer_2" xmlns="http://www.w3.org/2000/svg" xmlns:xlink="http://www.w3.org/1999/xlink" viewBox="0 0 56 70.21"><defs><style>.cls-1,.cls-2{fill:none;}.cls-2{stroke:#231916;stroke-linecap:square;stroke-width:1.5px;}.cls-3{fill:#231916;}.cls-4{clip-path:url(#clippath);}</style><clipPath id="clippath"><rect class="cls-1" width="56" height="47.99"/></clipPath></defs><g id="_图层_1"><rect class="cls-1" width="56" height="56"/><g class="cls-4"><path class="cls-2" d="M15.47,9.2c-2.8,0-5.08,2.28-5.08,5.08v50.11c0,2.8,2.28,5.08,5.08,5.08h25.05c2.8,0,5.08-2.28,5.08-5.08V14.28c0-2.8-2.28-5.08-5.08-5.08H15.47Z"/><line class="cls-2" x1="22.48" y1="14.59" x2="22.83" y2="14.59"/><line class="cls-2" x1="26.87" y1="14.59" x2="34.66" y2="14.59"/><path class="cls-3" d="M28,27.24c-3.76,0-6.82,3.06-6.82,6.82s3.06,6.82,6.82,6.82,6.82-3.06,6.82-6.82-3.06-6.82-6.82-6.82ZM31.72,36.39l-3.26,2.7c-.3.25-.74.23-1.02-.05-.24-.24-.29-.62-.12-.92l.63-1.09c.12-.21-.03-.48-.27-.48h-3.26c-.42,0-.76-.34-.76-.76h0c0-.42.34-.76.76-.76h6.81c.71,0,1.03.89.48,1.34ZM32.24,33.99h-8.08c-.59,0-.95-.64-.65-1.15l1.86-3.13c.14-.23.38-.37.65-.37h2.95c.68,0,1.02.82.54,1.3l-1.29,1.29c-.2.2-.06.54.22.54h3.79c.42,0,.76.34.76.76s-.34.76-.76.76Z"/></g></g></svg>