<?xml version="1.0" encoding="UTF-8"?><svg id="Layer_2" xmlns="http://www.w3.org/2000/svg" viewBox="0 0 60 56"><defs><style>.cls-1{fill:none;stroke:#231916;stroke-linecap:round;stroke-linejoin:round;stroke-width:1.61px;}.cls-2{fill:rgba(255,255,255,0);}</style></defs><g id="_图层_1"><rect class="cls-2" width="60" height="56"/><path class="cls-1" d="M18.61,4v5.78M30.09,4.01v5.76M41.39,4.01v5.76M18.61,46.22v5.78M30.09,46.24v5.76M41.39,46.24v5.76M54,16.61h-5.78M54,28.09h-5.78M54,39.4h-5.78M11.78,16.61h-5.78M11.76,28.09h-5.76M11.76,39.4h-5.76M20.26,18.26h19.49v19.49h-19.49v-19.49ZM14.87,9.78h30.25c1.71,0,3.11,1.39,3.11,3.11v30.26c0,1.71-1.39,3.09-3.09,3.09H14.87c-1.7,0-3.09-1.39-3.09-3.09V12.87c0-1.7,1.39-3.11,3.11-3.11l-.02.02Z"/></g></svg>