<?xml version="1.0" encoding="UTF-8"?><svg id="Layer_2" xmlns="http://www.w3.org/2000/svg" viewBox="0 0 59 56"><defs><style>.cls-1{stroke-linecap:round;}.cls-1,.cls-2{fill:none;stroke:#231916;stroke-linejoin:round;stroke-width:1.5px;}.cls-2{stroke-linecap:square;}.cls-3{fill:rgba(255,255,255,0);}</style></defs><g id="_图层_1"><rect class="cls-3" width="59" height="56"/><path class="cls-1" d="M20,44c8.84,0,16-7.16,16-16s-7.16-16-16-16S4,19.16,4,28s7.16,16,16,16Z"/><path class="cls-1" d="M39,44c8.84,0,16-7.16,16-16s-7.16-16-16-16-16,7.16-16,16,7.16,16,16,16Z"/><path class="cls-2" d="M25,22h9"/><path class="cls-2" d="M27,18h5"/><path class="cls-2" d="M27,37h5"/><path class="cls-2" d="M24,26h11"/><path class="cls-2" d="M24,30h11"/><path class="cls-2" d="M25,34h9"/></g></svg>