<?xml version="1.0" encoding="UTF-8"?><svg id="Layer_2" xmlns="http://www.w3.org/2000/svg" viewBox="0 0 56 56"><defs><style>.cls-1,.cls-2{fill:none;}.cls-2{stroke:#fff;stroke-linecap:square;stroke-width:1.5px;}</style></defs><g id="_图层_1"><rect class="cls-1" width="56" height="56"/><path class="cls-2" d="M42.69,30.77c1.53-8.11-3.8-15.92-11.91-17.45-8.11-1.53-15.92,3.8-17.45,11.91-1.53,8.11,3.8,15.92,11.91,17.45,8.11,1.53,15.92-3.8,17.45-11.91Z"/><path class="cls-2" d="M34.83,26.56h-5.28v-9.16l-8.37,12.04h5.28v9.16l8.37-12.04Z"/><line class="cls-2" x1="28" y1="3.19" x2="28" y2="8.51"/><line class="cls-2" x1="28" y1="47.49" x2="28" y2="52.81"/><line class="cls-2" x1="40.41" y1="6.52" x2="37.75" y2="11.12"/><line class="cls-2" x1="18.25" y1="44.88" x2="15.59" y2="49.48"/><line class="cls-2" x1="49.49" y1="15.6" x2="44.88" y2="18.26"/><line class="cls-2" x1="11.12" y1="37.74" x2="6.51" y2="40.4"/><line class="cls-2" x1="52.81" y1="28.01" x2="47.49" y2="28.01"/><line class="cls-2" x1="8.51" y1="27.99" x2="3.19" y2="27.99"/><line class="cls-2" x1="49.48" y1="40.42" x2="44.87" y2="37.75"/><line class="cls-2" x1="11.13" y1="18.25" x2="6.52" y2="15.58"/><line class="cls-2" x1="40.39" y1="49.49" x2="37.73" y2="44.89"/><line class="cls-2" x1="18.27" y1="11.11" x2="15.61" y2="6.51"/></g></svg>