<?xml version="1.0" encoding="UTF-8"?><svg id="Layer_2" xmlns="http://www.w3.org/2000/svg" viewBox="0 0 56 56"><defs><style>.cls-1,.cls-2,.cls-3{fill:none;stroke:#231916;}.cls-1,.cls-3{stroke-width:1.62px;}.cls-2{stroke-linecap:round;stroke-width:1.5px;}.cls-2,.cls-3{stroke-linejoin:round;}.cls-3{stroke-linecap:square;}.cls-4{fill:rgba(255,255,255,0);}</style></defs><g id="_图层_1"><path class="cls-3" d="M17.04,5.17l3.49,7.21"/><path class="cls-3" d="M13.24,35.17l-7.96,3.86"/><path class="cls-3" d="M22.31,44.62l-2.54,7.3"/><path class="cls-3" d="M10.73,21.95l-6.58-2.29"/><rect class="cls-4" width="56" height="56"/><path class="cls-2" d="M28,41.05c7.53,0,13.63-6.1,13.63-13.63s-6.1-13.63-13.63-13.63-13.63,6.1-13.63,13.63,6.1,13.63,13.63,13.63Z"/><path class="cls-3" d="M35.18,42.6l3.78,7.8"/><path class="cls-3" d="M50.9,16.93l-7.51,3.64"/><path class="cls-3" d="M36.41,4.03l-2.74,6.8"/><path class="cls-3" d="M52.04,36.3l-8.37-2.53"/><path class="cls-1" d="M34.5,15.54c-12.46,5.42-8.12,21.67-3.25,24.92"/></g></svg>